<mxfile host="app.diagrams.net" agent="Mozilla/5.0 (Windows NT 10.0; Win64; x64) AppleWebKit/537.36 (KHTML, like Gecko) Chrome/129.0.0.0 Safari/537.36" version="24.7.8" pages="2">
  <diagram name="Página-1" id="D70_1txaW_fhG79RWd75">
    <mxGraphModel dx="955" dy="475" grid="1" gridSize="10" guides="1" tooltips="1" connect="1" arrows="1" fold="1" page="1" pageScale="1" pageWidth="827" pageHeight="1169" math="0" shadow="0">
      <root>
        <mxCell id="0" />
        <mxCell id="1" parent="0" />
        <mxCell id="aXvVgPudpnBbOu-AIR-N-1" value="" style="rounded=0;whiteSpace=wrap;html=1;fillColor=#e6dab8;fontColor=#333333;strokeColor=#666666;" vertex="1" parent="1">
          <mxGeometry x="120" y="280" width="80" height="50" as="geometry" />
        </mxCell>
        <mxCell id="aXvVgPudpnBbOu-AIR-N-3" value="" style="rounded=0;whiteSpace=wrap;html=1;fillColor=#E6DAB8;strokeColor=#666666;" vertex="1" parent="1">
          <mxGeometry x="200" y="280" width="80" height="50" as="geometry" />
        </mxCell>
        <mxCell id="aXvVgPudpnBbOu-AIR-N-4" value="&lt;b&gt;E&lt;/b&gt;" style="rounded=0;whiteSpace=wrap;html=1;fillColor=#fff2cc;strokeColor=#d6b656;" vertex="1" parent="1">
          <mxGeometry x="280" y="280" width="80" height="50" as="geometry" />
        </mxCell>
        <mxCell id="aXvVgPudpnBbOu-AIR-N-5" value="&lt;b&gt;E&lt;/b&gt;" style="rounded=0;whiteSpace=wrap;html=1;fillColor=#fff2cc;strokeColor=#d6b656;" vertex="1" parent="1">
          <mxGeometry x="360" y="280" width="80" height="50" as="geometry" />
        </mxCell>
        <mxCell id="aXvVgPudpnBbOu-AIR-N-6" value="&lt;b&gt;N&lt;/b&gt;" style="rounded=0;whiteSpace=wrap;html=1;fillColor=#ffe6cc;strokeColor=#d79b00;" vertex="1" parent="1">
          <mxGeometry x="440" y="280" width="80" height="50" as="geometry" />
        </mxCell>
        <mxCell id="aXvVgPudpnBbOu-AIR-N-7" value="&lt;b&gt;N&lt;/b&gt;" style="rounded=0;whiteSpace=wrap;html=1;fillColor=#ffe6cc;strokeColor=#d79b00;" vertex="1" parent="1">
          <mxGeometry x="520" y="280" width="80" height="50" as="geometry" />
        </mxCell>
        <mxCell id="aXvVgPudpnBbOu-AIR-N-8" value="" style="sketch=0;aspect=fixed;pointerEvents=1;shadow=0;dashed=0;html=1;strokeColor=none;labelPosition=center;verticalLabelPosition=bottom;verticalAlign=top;align=center;fillColor=#00188D;shape=mxgraph.azure.laptop" vertex="1" parent="1">
          <mxGeometry x="640" y="280" width="83.33" height="50" as="geometry" />
        </mxCell>
        <mxCell id="aXvVgPudpnBbOu-AIR-N-10" style="edgeStyle=orthogonalEdgeStyle;rounded=0;orthogonalLoop=1;jettySize=auto;html=1;entryX=0;entryY=0.5;entryDx=0;entryDy=0;exitX=0.5;exitY=1;exitDx=0;exitDy=0;exitPerimeter=0;" edge="1" parent="1" source="aXvVgPudpnBbOu-AIR-N-9" target="aXvVgPudpnBbOu-AIR-N-1">
          <mxGeometry relative="1" as="geometry" />
        </mxCell>
        <mxCell id="aXvVgPudpnBbOu-AIR-N-9" value="" style="ellipse;shape=cloud;whiteSpace=wrap;html=1;fillColor=#f5f5f5;fontColor=#333333;strokeColor=#666666;" vertex="1" parent="1">
          <mxGeometry y="140" width="100" height="70" as="geometry" />
        </mxCell>
        <mxCell id="aXvVgPudpnBbOu-AIR-N-11" style="edgeStyle=orthogonalEdgeStyle;rounded=0;orthogonalLoop=1;jettySize=auto;html=1;entryX=0.08;entryY=0.5;entryDx=0;entryDy=0;entryPerimeter=0;" edge="1" parent="1" source="aXvVgPudpnBbOu-AIR-N-7" target="aXvVgPudpnBbOu-AIR-N-8">
          <mxGeometry relative="1" as="geometry" />
        </mxCell>
        <mxCell id="aXvVgPudpnBbOu-AIR-N-12" value="&lt;b&gt;Access Point&lt;/b&gt;" style="text;html=1;align=center;verticalAlign=middle;whiteSpace=wrap;rounded=0;" vertex="1" parent="1">
          <mxGeometry x="10" y="100" width="80" height="30" as="geometry" />
        </mxCell>
        <mxCell id="aXvVgPudpnBbOu-AIR-N-14" value="&lt;b&gt;Usuario&lt;/b&gt;" style="text;html=1;align=center;verticalAlign=middle;whiteSpace=wrap;rounded=0;" vertex="1" parent="1">
          <mxGeometry x="641.67" y="240" width="80" height="30" as="geometry" />
        </mxCell>
      </root>
    </mxGraphModel>
  </diagram>
  <diagram id="ixxfbgX7vQtgQS_IXYR6" name="Página-2">
    <mxGraphModel dx="1050" dy="522" grid="1" gridSize="10" guides="1" tooltips="1" connect="1" arrows="1" fold="1" page="1" pageScale="1" pageWidth="827" pageHeight="1169" math="0" shadow="0">
      <root>
        <mxCell id="0" />
        <mxCell id="1" parent="0" />
        <mxCell id="i6kxM56C2uDMfs6ZRXyL-2" value="" style="image;html=1;image=img/lib/clip_art/computers/Server_128x128.png" vertex="1" parent="1">
          <mxGeometry x="780" y="50" width="80" height="80" as="geometry" />
        </mxCell>
        <mxCell id="i6kxM56C2uDMfs6ZRXyL-13" style="rounded=0;orthogonalLoop=1;jettySize=auto;html=1;entryX=0;entryY=1;entryDx=0;entryDy=0;fontStyle=1" edge="1" parent="1">
          <mxGeometry relative="1" as="geometry">
            <mxPoint x="91.32999999999993" y="399.2515870591229" as="sourcePoint" />
            <mxPoint x="199.7157287525381" y="358.2842712474619" as="targetPoint" />
          </mxGeometry>
        </mxCell>
        <mxCell id="i6kxM56C2uDMfs6ZRXyL-14" value="ISP" style="edgeLabel;html=1;align=center;verticalAlign=middle;resizable=0;points=[];" vertex="1" connectable="0" parent="i6kxM56C2uDMfs6ZRXyL-13">
          <mxGeometry x="0.007" relative="1" as="geometry">
            <mxPoint as="offset" />
          </mxGeometry>
        </mxCell>
        <mxCell id="i6kxM56C2uDMfs6ZRXyL-3" value="" style="sketch=0;aspect=fixed;pointerEvents=1;shadow=0;dashed=0;html=1;strokeColor=none;labelPosition=center;verticalLabelPosition=bottom;verticalAlign=top;align=center;fillColor=#00188D;shape=mxgraph.azure.laptop" vertex="1" parent="1">
          <mxGeometry x="10" y="390" width="83.33" height="50" as="geometry" />
        </mxCell>
        <mxCell id="i6kxM56C2uDMfs6ZRXyL-4" value="" style="ellipse;whiteSpace=wrap;html=1;aspect=fixed;fillColor=#fff2cc;strokeColor=#d6b656;" vertex="1" parent="1">
          <mxGeometry x="195" y="90" width="70" height="70" as="geometry" />
        </mxCell>
        <mxCell id="i6kxM56C2uDMfs6ZRXyL-15" style="edgeStyle=orthogonalEdgeStyle;rounded=0;orthogonalLoop=1;jettySize=auto;html=1;entryX=0.5;entryY=1;entryDx=0;entryDy=0;endArrow=none;endFill=0;" edge="1" parent="1" source="i6kxM56C2uDMfs6ZRXyL-5" target="i6kxM56C2uDMfs6ZRXyL-4">
          <mxGeometry relative="1" as="geometry" />
        </mxCell>
        <mxCell id="i6kxM56C2uDMfs6ZRXyL-5" value="" style="ellipse;whiteSpace=wrap;html=1;aspect=fixed;fillColor=#fff2cc;strokeColor=#d6b656;" vertex="1" parent="1">
          <mxGeometry x="195" y="290" width="70" height="70" as="geometry" />
        </mxCell>
        <mxCell id="i6kxM56C2uDMfs6ZRXyL-6" value="" style="ellipse;whiteSpace=wrap;html=1;aspect=fixed;fillColor=#fff2cc;strokeColor=#d6b656;" vertex="1" parent="1">
          <mxGeometry x="310" y="150" width="70" height="70" as="geometry" />
        </mxCell>
        <mxCell id="i6kxM56C2uDMfs6ZRXyL-18" style="rounded=0;orthogonalLoop=1;jettySize=auto;html=1;exitX=1;exitY=0;exitDx=0;exitDy=0;entryX=0;entryY=1;entryDx=0;entryDy=0;endArrow=none;endFill=0;" edge="1" parent="1" source="i6kxM56C2uDMfs6ZRXyL-7" target="i6kxM56C2uDMfs6ZRXyL-9">
          <mxGeometry relative="1" as="geometry" />
        </mxCell>
        <mxCell id="i6kxM56C2uDMfs6ZRXyL-7" value="" style="ellipse;whiteSpace=wrap;html=1;aspect=fixed;fillColor=#fff2cc;strokeColor=#d6b656;" vertex="1" parent="1">
          <mxGeometry x="360" y="300" width="70" height="70" as="geometry" />
        </mxCell>
        <mxCell id="i6kxM56C2uDMfs6ZRXyL-10" style="edgeStyle=orthogonalEdgeStyle;rounded=0;orthogonalLoop=1;jettySize=auto;html=1;exitX=0;exitY=0.5;exitDx=0;exitDy=0;" edge="1" parent="1" source="i6kxM56C2uDMfs6ZRXyL-8">
          <mxGeometry relative="1" as="geometry">
            <mxPoint x="440" y="90" as="targetPoint" />
          </mxGeometry>
        </mxCell>
        <mxCell id="i6kxM56C2uDMfs6ZRXyL-8" value="" style="ellipse;whiteSpace=wrap;html=1;aspect=fixed;fillColor=#fff2cc;strokeColor=#d6b656;" vertex="1" parent="1">
          <mxGeometry x="410" y="50" width="70" height="70" as="geometry" />
        </mxCell>
        <mxCell id="i6kxM56C2uDMfs6ZRXyL-9" value="" style="ellipse;whiteSpace=wrap;html=1;aspect=fixed;fillColor=#fff2cc;strokeColor=#d6b656;" vertex="1" parent="1">
          <mxGeometry x="490" y="200" width="70" height="70" as="geometry" />
        </mxCell>
        <mxCell id="i6kxM56C2uDMfs6ZRXyL-19" style="rounded=0;orthogonalLoop=1;jettySize=auto;html=1;endArrow=none;endFill=0;entryX=0;entryY=0.5;entryDx=0;entryDy=0;" edge="1" parent="1" source="i6kxM56C2uDMfs6ZRXyL-11" target="i6kxM56C2uDMfs6ZRXyL-2">
          <mxGeometry relative="1" as="geometry" />
        </mxCell>
        <mxCell id="i6kxM56C2uDMfs6ZRXyL-11" value="" style="ellipse;whiteSpace=wrap;html=1;aspect=fixed;fillColor=#fff2cc;strokeColor=#d6b656;" vertex="1" parent="1">
          <mxGeometry x="620" y="130" width="70" height="70" as="geometry" />
        </mxCell>
        <mxCell id="i6kxM56C2uDMfs6ZRXyL-16" style="rounded=0;orthogonalLoop=1;jettySize=auto;html=1;entryX=0;entryY=1;entryDx=0;entryDy=0;endArrow=none;endFill=0;exitX=0.94;exitY=0.3;exitDx=0;exitDy=0;exitPerimeter=0;" edge="1" parent="1" source="i6kxM56C2uDMfs6ZRXyL-5" target="i6kxM56C2uDMfs6ZRXyL-6">
          <mxGeometry relative="1" as="geometry">
            <mxPoint x="240" y="300" as="sourcePoint" />
            <mxPoint x="240" y="180" as="targetPoint" />
          </mxGeometry>
        </mxCell>
        <mxCell id="i6kxM56C2uDMfs6ZRXyL-17" style="rounded=0;orthogonalLoop=1;jettySize=auto;html=1;entryX=0;entryY=0.5;entryDx=0;entryDy=0;endArrow=none;endFill=0;exitX=0.98;exitY=0.71;exitDx=0;exitDy=0;exitPerimeter=0;" edge="1" parent="1" source="i6kxM56C2uDMfs6ZRXyL-5" target="i6kxM56C2uDMfs6ZRXyL-7">
          <mxGeometry relative="1" as="geometry">
            <mxPoint x="260" y="340" as="sourcePoint" />
            <mxPoint x="332" y="228" as="targetPoint" />
          </mxGeometry>
        </mxCell>
        <mxCell id="i6kxM56C2uDMfs6ZRXyL-21" style="rounded=0;orthogonalLoop=1;jettySize=auto;html=1;entryX=-0.01;entryY=0.39;entryDx=0;entryDy=0;endArrow=none;endFill=0;exitX=1;exitY=0.5;exitDx=0;exitDy=0;entryPerimeter=0;" edge="1" parent="1" source="i6kxM56C2uDMfs6ZRXyL-4" target="i6kxM56C2uDMfs6ZRXyL-8">
          <mxGeometry relative="1" as="geometry">
            <mxPoint x="285" y="334" as="sourcePoint" />
            <mxPoint x="342" y="238" as="targetPoint" />
          </mxGeometry>
        </mxCell>
        <mxCell id="i6kxM56C2uDMfs6ZRXyL-23" style="rounded=0;orthogonalLoop=1;jettySize=auto;html=1;entryX=0;entryY=1;entryDx=0;entryDy=0;endArrow=none;endFill=0;exitX=1;exitY=0;exitDx=0;exitDy=0;" edge="1" parent="1" source="i6kxM56C2uDMfs6ZRXyL-6" target="i6kxM56C2uDMfs6ZRXyL-8">
          <mxGeometry relative="1" as="geometry">
            <mxPoint x="305" y="354" as="sourcePoint" />
            <mxPoint x="362" y="258" as="targetPoint" />
          </mxGeometry>
        </mxCell>
        <mxCell id="i6kxM56C2uDMfs6ZRXyL-25" style="rounded=0;orthogonalLoop=1;jettySize=auto;html=1;entryX=0;entryY=1;entryDx=0;entryDy=0;endArrow=none;endFill=0;exitX=1;exitY=0.5;exitDx=0;exitDy=0;" edge="1" parent="1" source="i6kxM56C2uDMfs6ZRXyL-9" target="i6kxM56C2uDMfs6ZRXyL-11">
          <mxGeometry relative="1" as="geometry">
            <mxPoint x="325" y="374" as="sourcePoint" />
            <mxPoint x="382" y="278" as="targetPoint" />
          </mxGeometry>
        </mxCell>
        <mxCell id="i6kxM56C2uDMfs6ZRXyL-26" style="rounded=0;orthogonalLoop=1;jettySize=auto;html=1;entryX=1;entryY=1;entryDx=0;entryDy=0;endArrow=none;endFill=0;exitX=0;exitY=0;exitDx=0;exitDy=0;" edge="1" parent="1" source="i6kxM56C2uDMfs6ZRXyL-7" target="i6kxM56C2uDMfs6ZRXyL-4">
          <mxGeometry relative="1" as="geometry">
            <mxPoint x="335" y="384" as="sourcePoint" />
            <mxPoint x="392" y="288" as="targetPoint" />
          </mxGeometry>
        </mxCell>
        <mxCell id="i6kxM56C2uDMfs6ZRXyL-27" style="rounded=0;orthogonalLoop=1;jettySize=auto;html=1;entryX=0.5;entryY=1;entryDx=0;entryDy=0;endArrow=none;endFill=0;exitX=0.755;exitY=0.045;exitDx=0;exitDy=0;exitPerimeter=0;" edge="1" parent="1" source="i6kxM56C2uDMfs6ZRXyL-7" target="i6kxM56C2uDMfs6ZRXyL-8">
          <mxGeometry relative="1" as="geometry">
            <mxPoint x="345" y="394" as="sourcePoint" />
            <mxPoint x="402" y="298" as="targetPoint" />
          </mxGeometry>
        </mxCell>
        <mxCell id="i6kxM56C2uDMfs6ZRXyL-28" value="&lt;b&gt;Servidor&lt;/b&gt;" style="text;html=1;align=center;verticalAlign=middle;resizable=0;points=[];autosize=1;strokeColor=none;fillColor=none;" vertex="1" parent="1">
          <mxGeometry x="785" y="18" width="70" height="30" as="geometry" />
        </mxCell>
        <mxCell id="i6kxM56C2uDMfs6ZRXyL-31" value="" style="ellipse;whiteSpace=wrap;html=1;aspect=fixed;fillColor=#dae8fc;strokeColor=#6c8ebf;" vertex="1" parent="1">
          <mxGeometry x="215" y="310" width="30" height="30" as="geometry" />
        </mxCell>
        <mxCell id="i6kxM56C2uDMfs6ZRXyL-32" style="rounded=0;orthogonalLoop=1;jettySize=auto;html=1;entryX=0.714;entryY=1;entryDx=0;entryDy=0;endArrow=none;endFill=0;exitX=0.5;exitY=0;exitDx=0;exitDy=0;entryPerimeter=0;" edge="1" parent="1" source="i6kxM56C2uDMfs6ZRXyL-7" target="i6kxM56C2uDMfs6ZRXyL-6">
          <mxGeometry relative="1" as="geometry">
            <mxPoint x="423" y="313" as="sourcePoint" />
            <mxPoint x="455" y="130" as="targetPoint" />
          </mxGeometry>
        </mxCell>
        <mxCell id="i6kxM56C2uDMfs6ZRXyL-34" value="" style="ellipse;whiteSpace=wrap;html=1;aspect=fixed;fillColor=#dae8fc;strokeColor=#6c8ebf;" vertex="1" parent="1">
          <mxGeometry x="330" y="170" width="30" height="30" as="geometry" />
        </mxCell>
        <mxCell id="i6kxM56C2uDMfs6ZRXyL-35" value="" style="ellipse;whiteSpace=wrap;html=1;aspect=fixed;fillColor=#dae8fc;strokeColor=#6c8ebf;" vertex="1" parent="1">
          <mxGeometry x="430" y="70" width="30" height="30" as="geometry" />
        </mxCell>
        <mxCell id="i6kxM56C2uDMfs6ZRXyL-37" value="" style="ellipse;whiteSpace=wrap;html=1;aspect=fixed;fillColor=#dae8fc;strokeColor=#6c8ebf;" vertex="1" parent="1">
          <mxGeometry x="640" y="150" width="30" height="30" as="geometry" />
        </mxCell>
        <mxCell id="i6kxM56C2uDMfs6ZRXyL-39" style="rounded=0;orthogonalLoop=1;jettySize=auto;html=1;entryX=1;entryY=1;entryDx=0;entryDy=0;endArrow=none;endFill=0;exitX=0.389;exitY=-0.04;exitDx=0;exitDy=0;exitPerimeter=0;" edge="1" parent="1" source="i6kxM56C2uDMfs6ZRXyL-9" target="i6kxM56C2uDMfs6ZRXyL-8">
          <mxGeometry relative="1" as="geometry">
            <mxPoint x="423" y="313" as="sourcePoint" />
            <mxPoint x="455" y="130" as="targetPoint" />
          </mxGeometry>
        </mxCell>
        <mxCell id="i6kxM56C2uDMfs6ZRXyL-40" style="rounded=0;orthogonalLoop=1;jettySize=auto;html=1;entryX=1;entryY=0.5;entryDx=0;entryDy=0;endArrow=none;endFill=0;exitX=0;exitY=0;exitDx=0;exitDy=0;" edge="1" parent="1" source="i6kxM56C2uDMfs6ZRXyL-11" target="i6kxM56C2uDMfs6ZRXyL-8">
          <mxGeometry relative="1" as="geometry">
            <mxPoint x="527" y="207" as="sourcePoint" />
            <mxPoint x="480" y="120" as="targetPoint" />
          </mxGeometry>
        </mxCell>
      </root>
    </mxGraphModel>
  </diagram>
</mxfile>
